<svg width="21" height="12" viewBox="0 0 21 12" fill="none" xmlns="http://www.w3.org/2000/svg">
<path d="M9.39081 10.1003C9.44414 10.0553 9.49831 10.0087 9.54831 9.95951C6.76414 12.6912 2.22414 11.4162 1.15997 7.56368V7.55784C-0.267526 2.31618 5.75164 -1.66549 9.54664 2.00118C9.62581 2.08534 14.8683 7.67618 14.535 7.32034H14.55C15.3325 8.12701 16.4641 8.03868 17.1375 7.33368C17.8616 6.57701 17.8875 5.34201 17.1766 4.57284C16.0541 3.28034 13.85 4.24618 14.0608 6.16201L12.7991 4.87701L11.3358 3.47784C11.6375 2.87868 12.0333 2.35451 12.5291 1.90118C12.4758 1.94701 12.4216 1.99451 12.3716 2.04201C15.1666 -0.699656 19.7033 0.605344 20.76 4.44118V4.44618C22.1908 9.68701 16.165 13.6687 12.3733 10.002C12.2958 9.91868 7.05664 4.29284 7.38831 4.64951L7.38497 4.63701C7.37164 4.63701 7.37164 4.62451 7.37164 4.62451C6.54997 3.77701 5.43581 3.90451 4.78414 4.59868C4.05914 5.35534 4.03414 6.59034 4.74664 7.34784C5.81997 8.61034 8.07164 7.67451 7.85997 5.72034C7.94164 5.80451 10.7675 8.70534 10.5875 8.52118C10.13 9.43368 9.61831 9.85285 9.39081 10.1003Z" fill="#EBEBEB"/>
</svg>
