<svg width="219" height="48" viewBox="0 0 219 48" fill="none" xmlns="http://www.w3.org/2000/svg">
<path fill-rule="evenodd" clip-rule="evenodd" d="M178.987 0.657314C177.483 1.01758 176.406 1.89938 175.647 3.39152C175.124 4.41913 175.009 4.94215 174.925 6.66994L174.825 8.72579L179.574 13.2641C182.186 15.7603 184.563 18.2076 184.857 18.7028C185.226 19.3267 185.428 20.057 185.515 21.0827C185.624 22.3686 185.578 22.6615 185.169 23.3174C184.578 24.2645 182.91 25.7437 182.002 26.1256C181.192 26.4665 179.445 26.4941 178.089 26.1872C176.599 25.8501 174.449 23.5285 174.449 22.2561C174.449 22.0573 174.391 21.9518 174.321 22.0217C174.215 22.126 174.159 23.7372 174.221 24.8748C174.242 25.2711 175.825 25.9878 177.415 26.3216C180.198 26.9054 183.207 26.5418 184.658 25.4457C185.423 24.8687 186.336 23.4647 186.669 22.3538C186.786 21.9651 186.882 21.0036 186.884 20.2172C186.888 17.7979 186.57 17.3355 181.524 12.4287C179.067 10.0393 176.856 7.75053 176.61 7.34258C176.084 6.46862 176.008 4.72217 176.452 3.68016C176.864 2.71274 178.729 1.06399 179.719 0.791887C181.526 0.295356 182.965 0.623196 184.377 1.85319L185.367 2.71634V1.77054V0.82452L183.753 0.586956C181.735 0.289843 180.441 0.308916 178.987 0.657314ZM30.9555 0.724493L27.5737 0.783831L28.2346 1.33419L28.8952 1.88455L28.8331 13.365C28.7759 23.9368 28.741 24.8907 28.3915 25.4184L28.0119 25.9916H29.5485C31.0237 25.9916 31.071 25.9762 30.7309 25.604C30.4215 25.2658 30.3766 24.559 30.3766 20.0354C30.3766 15.6484 30.4286 14.7806 30.7161 14.3743C31.0488 13.9041 31.1149 13.8971 34.0878 14.0145C37.7234 14.158 38.501 14.2675 38.9931 14.7047C39.3453 15.0175 39.3678 14.9667 39.3678 13.8539V12.6705L38.3914 13.2107C37.4655 13.7229 37.2578 13.7498 34.386 13.7265C31.9706 13.7072 31.2905 13.6362 31.0274 13.3764C30.5363 12.8911 30.3017 1.90871 30.7705 1.35581C31.0466 1.03051 31.5078 0.985582 34.5307 0.990032C38.4504 0.995966 39.6542 1.19814 40.4916 1.99051L41.0804 2.54765V1.55671V0.565767L37.7087 0.615355C35.8541 0.642692 32.8153 0.691857 30.9555 0.724493ZM104.415 0.71962L101.065 0.783621L101.694 1.40646L102.324 2.0295L102.261 13.3217C102.207 23.183 102.155 24.6976 101.856 25.2726L101.513 25.931L103.762 26.0673C106.175 26.2135 114.722 26.2567 114.722 26.1228C114.722 26.0785 114.97 25.387 115.272 24.5864L115.823 23.1307L114.898 24.0212C113.255 25.6032 112.367 25.8609 108.241 25.9537C105.62 26.0128 104.565 25.9645 104.334 25.7753C103.881 25.4029 103.862 14.5163 104.314 14.1448C104.521 13.9747 105.499 13.9378 107.579 14.0219C110.947 14.158 111.634 14.2533 112.314 14.6795C112.794 14.9809 112.796 14.9783 112.796 13.6682V12.3547L112.314 12.7892C111.345 13.6629 110.888 13.7604 107.893 13.7343C103.756 13.6983 104.054 14.1986 103.998 7.19127C103.962 2.78839 104.013 1.56455 104.242 1.29138C104.494 0.990456 105.036 0.956123 108.503 1.02139C112.616 1.09875 112.989 1.17207 114.026 2.10791L114.508 2.54235V1.55162V0.561104L111.136 0.608364C109.282 0.634219 106.257 0.684229 104.415 0.71962ZM0.970566 1.27401L1.55885 1.77499L1.57104 12.9826C1.58196 22.7579 1.5398 24.3026 1.24159 25.0685L0.899925 25.9467L1.66974 26.0728C2.09339 26.1421 2.96447 26.2 3.60562 26.2012L4.77148 26.2036L4.03378 25.4502L3.29607 24.6966L3.2205 13.2113C3.14771 2.16831 3.16035 1.71205 3.54932 1.36365C3.86016 1.08497 4.44629 0.985158 6.08675 0.931542C7.37506 0.889369 6.66797 0.84423 4.30094 0.817316L0.38208 0.773026L0.970566 1.27401ZM53.0031 1.28439L53.6038 1.79576V13.099C53.6038 23.1534 53.5648 24.4874 53.2503 25.1726L52.8969 25.9429L53.6785 26.0709C54.1083 26.1413 54.9826 26.2 55.6212 26.2012L56.7826 26.2036L56.3437 25.7267C55.347 24.6434 55.3577 24.7667 55.2541 12.96C55.138 -0.257123 54.8415 1.04153 57.9996 0.931542C59.1813 0.890429 58.4369 0.842745 56.2142 0.817103L52.4024 0.773026L53.0031 1.28439ZM77.2601 1.35581L77.9103 1.93859L77.9129 13.1479C77.9154 23.6518 77.8906 24.4073 77.5175 25.1539L77.1193 25.9505L80.3469 26.0915C82.122 26.169 85.103 26.2021 86.9715 26.165L90.3684 26.0976L90.743 25.144C91.4717 23.2894 91.4576 23.249 90.4151 24.21C88.9198 25.5886 88.0084 25.8302 83.8937 25.9389C80.5663 26.0268 80.337 26.0075 79.972 25.6083C79.6062 25.2082 79.5893 24.5737 79.6681 14.3031C79.7552 2.97361 79.7954 2.46945 80.7031 1.32741L81.1435 0.773026H78.8768H76.61L77.2601 1.35581ZM146.361 1.3681C147.269 2.20752 147.348 3.33515 147.163 12.8305C147.03 19.6524 146.959 20.8536 146.668 21.1755C146.482 21.3824 146.261 21.5254 146.178 21.4934C146.094 21.4614 145.083 20.434 143.932 19.2102C142.781 17.9863 140.296 15.3638 138.409 13.3823C136.523 11.4009 134.163 8.92139 133.165 7.87238C132.168 6.82337 130.235 4.83873 128.87 3.4623L126.389 0.959517L126.282 12.8222L126.175 24.6851L125.687 25.3383L125.199 25.9916H126.623C127.926 25.9916 128.022 25.9618 127.753 25.6392C127.513 25.3506 127.467 23.5815 127.5 15.8567C127.538 6.99397 127.564 6.40313 127.937 6.0346C128.322 5.65315 128.546 5.86591 136.245 13.9187C140.597 18.4708 145.045 23.1207 146.129 24.2522L148.101 26.3095L148.131 25.5678C148.148 25.1598 148.224 19.6601 148.3 13.3463L148.439 1.86654L148.958 1.31978L149.477 0.773026H147.598H145.718L146.361 1.3681ZM160.469 1.2846L161.07 1.79597V13.2052C161.07 23.303 161.03 24.6907 160.723 25.2796L160.377 25.9452L161.151 26.072C161.577 26.1419 162.442 26.2 163.072 26.2012L164.218 26.2036L163.576 25.4801C162.959 24.7837 162.928 24.6536 162.774 22.0363C162.595 19.0018 162.803 6.50867 163.078 3.78633C163.213 2.44423 163.363 1.91782 163.714 1.5476C163.967 1.28142 164.174 0.998298 164.174 0.918404C164.174 0.838298 163.205 0.773026 162.021 0.773026H159.868L160.469 1.2846ZM196.763 1.26913L197.304 1.76545L197.465 9.58704C197.664 19.2066 197.54 23.8728 197.055 25.0212C196.864 25.4741 196.758 25.895 196.82 25.9565C196.882 26.0177 197.772 26.1116 198.798 26.1648L200.662 26.2616L199.989 25.5025C199.472 24.9191 199.28 24.459 199.161 23.5151C198.95 21.8414 199.24 14.5358 199.531 14.1881C199.713 13.9708 201.391 13.9121 207.41 13.9121C214.547 13.9121 215.081 13.938 215.411 14.2997C215.719 14.6356 215.766 15.3102 215.766 19.3721C215.766 24.2087 215.672 24.8668 214.858 25.7267L214.407 26.2036L215.568 26.2012C216.207 26.2 217.087 26.1404 217.524 26.0688L218.318 25.9389L217.952 25.2764C217.621 24.6792 217.579 23.5052 217.521 13.3234L217.457 2.03268L218.094 1.40286L218.73 0.773026H216.495H214.26L214.925 1.36089C215.558 1.92079 215.599 2.05515 215.776 4.16885C216.097 8.01352 216.032 12.4726 215.647 13.0172L215.313 13.4883H207.545C200.115 13.4883 199.76 13.4703 199.399 13.075C199.056 12.6997 199.029 12.2293 199.111 7.93596C199.204 3.02659 199.352 2.17446 200.287 1.15173C200.617 0.790402 200.531 0.773026 198.428 0.773026H196.222L196.763 1.26913ZM9.56847 1.35009C11.0619 1.78559 12.6567 3.1938 13.1816 4.54056C13.7624 6.03079 13.7179 9.2681 13.1007 10.4154C12.0293 12.4069 10.0084 13.6385 7.46647 13.8496L5.97758 13.9732L9.24693 17.3864C11.0452 19.2636 14.1024 22.5083 16.041 24.5968C19.7424 28.5843 21.7568 30.4424 23.4307 31.4136C24.5884 32.0852 26.9158 32.7742 28.0171 32.771L28.771 32.7689L27.6559 32.255C27.0424 31.9723 25.9827 31.363 25.3011 30.901C23.5917 29.7426 15.6225 21.686 10.5997 16.0383L9.56933 14.8796L10.1375 14.396C10.4498 14.1298 10.9221 13.9121 11.1869 13.9121C11.8441 13.9121 13.51 12.8345 14.082 12.0394C15.1792 10.514 15.4667 9.48447 15.441 7.1705C15.4127 4.6283 15.0064 3.52122 13.713 2.46182C12.7969 1.71162 10.589 0.977527 9.32121 1.00211L8.43388 1.01906L9.56847 1.35009ZM60.6682 1.0962C60.786 1.13901 61.3053 1.28185 61.8223 1.41366C62.4588 1.57578 63.1331 2.00026 63.9108 2.72842C65.2529 3.98511 65.699 5.13606 65.699 7.34258C65.699 9.27805 65.2283 10.6926 64.199 11.8501C63.3521 12.8027 61.4873 13.9121 60.7333 13.9121C60.521 13.9121 60.3471 14.0075 60.3471 14.1241C60.3471 14.6149 63.0276 14.1173 64.5914 13.3363C65.8827 12.6915 66.8342 11.6242 67.3204 10.2756C68.2985 7.56213 67.4688 3.76514 65.587 2.34442C64.7406 1.70526 62.3626 0.976044 61.2081 1.00169C60.7935 1.0108 60.5505 1.05339 60.6682 1.0962ZM41.3482 24.21C39.98 25.5544 39.0053 25.8176 34.7651 25.987L31.1259 26.1324L36.2341 26.115L41.3422 26.0976L41.8431 24.7275C42.1188 23.9741 42.3248 23.3481 42.301 23.3369C42.2773 23.3255 41.8485 23.7184 41.3482 24.21ZM10.8593 40.9709C9.82343 42.8996 7.83639 47.4048 7.96526 47.5324C8.2731 47.8371 8.7918 47.3251 9.27797 46.2369L9.80182 45.0645H11.4757H13.1495L13.7173 46.3361C14.1475 47.3001 14.392 47.6076 14.7283 47.6076C15.1702 47.6076 15.17 47.6031 14.6742 46.495C12.8723 42.466 12.1108 40.8719 11.7822 40.4411L11.4076 39.95L10.8593 40.9709ZM19.0306 43.8V47.6216L21.3863 47.5616C24.3073 47.4872 24.6471 47.1024 21.8671 47.0168L19.8869 46.9559V45.4803V44.0049H21.7065C23.1813 44.0049 23.5262 43.9447 23.5262 43.687C23.5262 43.4294 23.1813 43.3692 21.7065 43.3692H19.8869V41.9917V40.6142H21.8009C23.6 40.6142 24.3778 40.3966 23.6144 40.1066C23.429 40.0361 22.3216 39.9784 21.1538 39.9784H19.0306V43.8ZM29.2195 40.302C27.1481 41.3714 27.7589 43.125 30.5718 44.1844C31.3442 44.4754 32.0325 44.8933 32.2296 45.191C32.537 45.6556 32.536 45.7465 32.2181 46.2267C31.7698 46.9042 31.1049 47.0583 29.2829 46.907C28.4715 46.8396 27.8077 46.8553 27.8077 46.9417C27.8077 47.4192 28.4548 47.6076 30.0949 47.6076C31.7302 47.6076 31.9188 47.5622 32.5146 47.0248C34.0071 45.6785 33.4225 44.4771 30.7746 43.4486C29.1883 42.8326 28.7603 42.3793 28.9729 41.5405C29.1561 40.8176 30.0071 40.5525 31.6075 40.7199C32.7004 40.8342 32.9455 40.8034 32.9455 40.5517C32.9455 39.9452 30.2591 39.7654 29.2195 40.302ZM37.2805 40.1191C36.0714 40.2897 36.5274 40.6142 37.9763 40.6142H39.3678L39.371 43.846C39.3742 47.0443 39.5583 48.0719 40.0068 47.3957C40.1226 47.2208 40.2189 45.6234 40.2208 43.846L40.2241 40.6142H41.6155C42.4006 40.6142 43.007 40.5218 43.007 40.4023C43.007 40.2857 42.5014 40.1897 41.8831 40.1889C41.2649 40.188 40.1331 40.1499 39.3678 40.1041C38.6024 40.0583 37.6633 40.0651 37.2805 40.1191ZM46.8634 43.3007C46.8664 46.8101 46.9698 47.6771 47.3692 47.5461C47.5137 47.4989 47.6345 46.7771 47.6717 45.7363L47.734 44.0049H50.0715H52.409L52.4713 45.7363C52.5379 47.5921 52.914 48.1986 53.1439 46.8209C53.2176 46.3793 53.279 44.6591 53.2803 42.9983C53.2824 40.1189 53.2627 39.9784 52.8545 39.9784C52.4621 39.9784 52.4263 40.1198 52.4263 41.6738V43.3692H50.0805H47.7347L47.6722 41.7291C47.6201 40.3648 47.5467 40.077 47.235 40.0183C46.891 39.9532 46.8606 40.2204 46.8634 43.3007ZM58.4204 43.793V47.6076H60.793C62.5958 47.6076 63.1445 47.544 63.077 47.3427C63.0169 47.1625 62.3597 47.0583 61.0255 47.0168L59.0627 46.9559V45.4886V44.0215L60.8836 43.9602C61.9135 43.9255 62.7045 43.807 62.7045 43.687C62.7045 43.5671 61.9135 43.4486 60.8836 43.4139L59.0627 43.3526V41.9834V40.6142H61.0964C62.2149 40.6142 63.1301 40.529 63.1301 40.4249C63.1301 40.0852 62.4857 39.9784 60.4366 39.9784H58.4204V43.793ZM66.8229 40.1187C66.1556 40.3853 66.6748 40.6142 67.9468 40.6142H69.3383V43.9924C69.3383 47.1539 69.4774 47.9642 69.9413 47.5052C70.0216 47.4255 70.1218 45.8425 70.1636 43.9873L70.2396 40.6142H71.5015C72.7115 40.6142 73.1401 40.3787 72.4248 40.1071C72.023 39.9545 67.2093 39.9644 66.8229 40.1187ZM76.9609 40.3137C76.7262 40.9189 76.8142 47.3605 77.0593 47.5103C77.1848 47.5872 77.3535 47.5851 77.434 47.5059C77.6346 47.3079 77.7555 42.015 77.5849 40.8895C77.4432 39.9543 77.1906 39.7209 76.9609 40.3137ZM84.3278 40.4552C82.9192 41.1677 82.524 41.8359 82.4416 43.6449C82.3573 45.4954 82.7752 46.416 84.0247 47.1316C84.729 47.5351 85.1223 47.601 86.5542 47.5555C88.9489 47.4794 88.9786 47.0396 86.5958 46.9411C84.936 46.8724 84.7241 46.8131 84.1345 46.2538C83.0871 45.2604 82.8824 43.3634 83.6661 41.9137C83.8123 41.6433 84.3696 41.2305 84.9041 40.9963C85.7063 40.6451 86.1194 40.5964 87.2652 40.7178C88.3657 40.8344 88.6344 40.8072 88.5601 40.5864C88.3176 39.8661 85.6558 39.7835 84.3278 40.4552ZM93.577 40.4031C91.9675 41.3746 92.2341 42.9046 94.1556 43.7239C96.5348 44.7384 96.8444 44.9365 96.9095 45.4886C97.0381 46.577 96.5376 46.8633 94.456 46.8921C93.0065 46.9121 92.5655 46.9862 92.5655 47.21C92.5655 47.4279 92.9953 47.5175 94.2637 47.5641C96.7673 47.6565 97.8103 47.0689 97.8103 45.5659C97.8103 44.696 97.0339 44.0331 95.2692 43.3963C94.4669 43.1066 93.8161 42.7175 93.6078 42.4028C93.294 41.9287 93.2942 41.8425 93.6095 41.3659C93.9966 40.7812 94.834 40.5655 96.3554 40.6585C97.4083 40.7229 97.7709 40.3976 96.9131 40.1586C95.847 39.8612 94.2849 39.9759 93.577 40.4031ZM113.574 40.4177C112.872 40.9641 112.828 41.8855 113.461 42.7663L113.913 43.3944L113.033 44.1399C111.905 45.0957 111.821 46.0398 112.779 46.9881C113.349 47.5521 113.536 47.6076 114.866 47.6067C115.955 47.6061 116.509 47.4968 117.037 47.178L117.746 46.7499L118.354 47.1789C118.689 47.4145 119.135 47.6076 119.344 47.6076C119.665 47.6076 119.633 47.5118 119.151 47.0132C118.462 46.3015 118.45 46.1392 119.004 45.0645C119.527 44.0494 119.529 44.0049 119.046 44.0049C118.808 44.0049 118.5 44.3296 118.243 44.8488L117.826 45.6927L116.655 44.6674L115.483 43.6419L116.28 42.8979C117.734 41.5403 117.072 39.9784 115.043 39.9784C114.451 39.9784 113.942 40.1306 113.574 40.4177ZM133.466 40.1713C133.349 40.3578 135.04 46.0214 135.53 47.0848C136.016 48.1414 136.243 47.7848 137.454 44.0524L138.33 41.3559L139.234 44.0172C140.254 47.0206 140.527 47.6076 140.904 47.6076C141.188 47.6076 143.545 40.2552 143.33 40.042C143.005 39.7205 142.518 40.6358 141.808 42.9055C141.381 44.2677 140.979 45.5255 140.913 45.7003C140.848 45.8751 140.347 44.7308 139.8 43.1572C138.979 40.7945 138.727 40.2853 138.355 40.2327C137.954 40.1759 137.809 40.4714 137.003 42.9877C136.507 44.5379 136.079 45.8889 136.053 45.99C136.027 46.0909 135.632 44.9465 135.175 43.4469C134.718 41.9472 134.261 40.5532 134.159 40.3493C133.957 39.9449 133.655 39.8674 133.466 40.1713ZM147.69 43.7858V47.6076H150.045C151.995 47.6076 152.4 47.5529 152.4 47.2897C152.4 47.0307 152.043 46.9718 150.473 46.9718H148.546V45.4884V44.0049H150.384C151.758 44.0049 152.199 43.9382 152.133 43.74C152.074 43.5639 151.457 43.4546 150.295 43.4137L148.546 43.352V41.9832V40.6142H150.491C151.951 40.6142 152.413 40.5483 152.346 40.3493C152.285 40.1647 151.565 40.0662 149.974 40.0242L147.69 39.964V43.7858ZM157.252 40.1198C157.173 40.1973 157.109 41.9171 157.109 43.9411V47.6216L159.465 47.5616C162.402 47.4868 162.629 47.1019 159.786 47.0172L157.751 46.9566V43.4675C157.751 40.2802 157.666 39.7095 157.252 40.1198ZM166.23 40.3137C166.159 40.4981 166.1 42.2146 166.1 44.1283V47.6076H168.455C170.406 47.6076 170.81 47.5529 170.81 47.2897C170.81 47.0307 170.453 46.9718 168.883 46.9718H166.957V44.1374C166.957 41.2648 166.823 39.9784 166.525 39.9784C166.434 39.9784 166.302 40.1293 166.23 40.3137ZM175.091 43.793C175.091 47.0117 175.141 47.6076 175.407 47.6076C175.668 47.6076 175.732 47.0672 175.781 44.4818L175.841 41.3559L178.196 44.4267C179.491 46.1155 180.705 47.5264 180.893 47.562C181.193 47.6186 181.251 47.1695 181.357 43.9615C181.423 41.9457 181.397 40.2141 181.3 40.1134C180.808 39.6054 180.657 40.354 180.657 43.3088V46.4024L178.653 43.7731C176.446 40.8782 175.654 39.9784 175.316 39.9784C175.168 39.9784 175.091 41.2754 175.091 43.793ZM186.587 40.1128C186.505 40.1944 186.437 41.9139 186.437 43.9344V47.6076H188.792C190.743 47.6076 191.147 47.5529 191.147 47.2897C191.147 47.0307 190.79 46.9718 189.22 46.9718H187.294V45.4966V44.0215L189.115 43.9602C190.145 43.9255 190.936 43.807 190.936 43.687C190.936 43.5671 190.145 43.4486 189.115 43.4139L187.294 43.3526V41.9834V40.6142H189.238C190.698 40.6142 191.161 40.5483 191.094 40.3493C190.997 40.0598 186.86 39.8426 186.587 40.1128ZM196.48 40.4618C195.548 41.0834 195.273 41.8245 195.67 42.6438C195.897 43.1136 196.378 43.4376 197.686 44.0037C198.632 44.4122 199.522 44.8238 199.665 44.9181C200.124 45.2211 199.952 46.0712 199.336 46.5548C198.816 46.9621 198.551 47.0053 197.088 46.9231C195.868 46.8546 195.429 46.8989 195.429 47.0901C195.429 47.4823 195.953 47.6076 197.597 47.6076C199.294 47.6076 200.146 47.2698 200.525 46.448C201.122 45.1514 200.533 44.2766 198.593 43.5762C196.415 42.7898 195.793 41.9679 196.736 41.1239C197.094 40.8036 197.515 40.7202 198.769 40.7202C201.197 40.7202 200.756 40.0471 198.297 39.9996C197.489 39.9839 197.016 40.1043 196.48 40.4618ZM206.02 40.2743C205.331 40.5714 204.848 41.3667 204.848 42.2028C204.848 42.8686 205.848 43.605 207.599 44.2287C209.206 44.8011 209.616 45.3631 209.05 46.218C208.606 46.8881 207.991 47.0439 206.227 46.9326C205.054 46.8587 204.843 46.8968 204.896 47.1731C204.946 47.4319 205.333 47.5148 206.717 47.5631C209.374 47.6559 210.128 47.1168 209.948 45.2527C209.874 44.4909 209.828 44.4586 206.882 43.1153C205.96 42.6953 205.802 42.5336 205.745 41.9506C205.648 40.9526 206.584 40.5146 208.419 40.7007C209.503 40.8106 209.772 40.7789 209.772 40.5407C209.772 39.9657 207.165 39.7807 206.02 40.2743ZM115.807 40.8335C116.441 41.1698 116.319 41.9783 115.534 42.6319L114.848 43.2039L114.357 42.6389C113.263 41.3803 114.33 40.0515 115.807 40.8335ZM12.2491 43.0513L12.7862 44.3228L11.6026 44.387C10.9516 44.4224 10.3693 44.4023 10.3087 44.3421C10.2482 44.2821 10.4676 43.6061 10.7964 42.84C11.1254 42.0739 11.4658 41.5218 11.5532 41.6134C11.6405 41.7049 11.9537 42.3519 12.2491 43.0513ZM115.997 45.0766C117.088 46.0604 117.141 46.1521 116.806 46.4833C116.58 46.7067 115.979 46.8714 115.181 46.9286C114.104 47.0057 113.846 46.9523 113.462 46.5717C112.811 45.9275 112.871 44.9901 113.598 44.4531C113.922 44.2141 114.332 44.0198 114.508 44.0212C114.685 44.0229 115.355 44.4976 115.997 45.0766Z" fill="white"/>
</svg>
