<svg width="21" height="18" viewBox="0 0 21 18" fill="none" xmlns="http://www.w3.org/2000/svg">
<path d="M18.9216 4.9275C19.7349 4.35 20.4191 3.62917 20.9766 2.79917V2.79833C20.2324 3.12417 19.4407 3.34083 18.6141 3.44583C19.4641 2.93833 20.1132 2.14083 20.4182 1.18C19.6257 1.6525 18.7507 1.98583 17.8182 2.1725C17.0657 1.37083 15.9932 0.875 14.8232 0.875C12.5532 0.875 10.7257 2.7175 10.7257 4.97583C10.7257 5.30083 10.7532 5.61333 10.8207 5.91083C7.4124 5.74417 4.39573 4.11083 2.36906 1.62167C2.01573 2.23583 1.8074 2.93833 1.8074 3.69417C1.8074 5.11417 2.53823 6.3725 3.62906 7.10167C2.9699 7.08917 2.32406 6.8975 1.77656 6.59667V6.64167C1.77656 8.63417 3.1974 10.2892 5.06156 10.6708C4.7274 10.7625 4.36406 10.8058 3.98656 10.8058C3.72406 10.8058 3.45906 10.7908 3.21073 10.7358C3.74156 12.3592 5.2499 13.5533 7.04156 13.5925C5.64656 14.6833 3.8749 15.3408 1.9574 15.3408C1.62156 15.3408 1.29906 15.3258 0.976562 15.285C2.79323 16.4558 4.9449 17.125 7.26656 17.125C14.5024 17.125 19.2182 11.0883 18.9216 4.9275V4.9275Z" fill="#EBEBEB"/>
</svg>
